<svg xmlns="http://www.w3.org/2000/svg" version="1.1" xlink="http://www.w3.org/1999/xlink" preserveAspectRatio="xMidYMid meet" viewBox="0 -6.159427812235663e-7 243.92164611816406 146.9990997314453" overflow="visible"><defs id="SvgjsDefs165463"></defs><g id="SvgjsG165464" transform="scale(0.6262912480853179)" opacity="1"><g id="SvgjsG165465" class="b2hQE_8Ak" transform="translate(120.46604308390019, -9.283560090702947) scale(1.4853696145124715)" stroke="#000000" stroke-width="2.0196993197445074px" light-content="false" non-strokable="false" fill="#ffffff"><path d="M84.375 12.5h-8.406V9.375a3.124 3.124 0 1 0-6.25 0V12.5h-39.47V9.375a3.124 3.124 0 1 0-6.25 0V12.5h-8.374c-5.176 0-9.375 4.2-9.375 9.375v6.25h87.5v-6.25a9.403 9.403 0 0 0-9.375-9.375zM12.5 34.375H6.25v50c0 5.176 4.2 9.375 9.375 9.375h68.75a9.403 9.403 0 0 0 9.375-9.375v-50zm59.375 7.813c0-.864.7-1.563 1.563-1.563h6.25a1.564 1.564 0 0 1 1.562 1.563v6.25A1.564 1.564 0 0 1 79.687 50h-6.25c-.863 0-1.562-.7-1.562-1.562zm0 15.624c0-.863.7-1.562 1.563-1.562h6.25a1.564 1.564 0 0 1 1.562 1.563v6.25a1.564 1.564 0 0 1-1.563 1.562h-6.25c-.863 0-1.562-.7-1.562-1.562zM70.75 74.939c.293-.297.691-.461 1.11-.461s.816.164 1.109.46L75 76.97l5.125-5.156a1.568 1.568 0 1 1 2.219 2.218l-6.25 6.25a1.628 1.628 0 0 1-2.219 0l-3.125-3.125a1.605 1.605 0 0 1 0-2.219zm-16.594-32.75c0-.864.7-1.563 1.563-1.563h6.25a1.564 1.564 0 0 1 1.562 1.563v6.25A1.564 1.564 0 0 1 61.968 50h-6.25c-.863 0-1.562-.7-1.562-1.562zm0 15.624c0-.863.7-1.562 1.563-1.562h6.25a1.564 1.564 0 0 1 1.562 1.563v6.25a1.564 1.564 0 0 1-1.563 1.562h-6.25c-.863 0-1.562-.7-1.562-1.562zm0 15.626c0-.864.7-1.563 1.563-1.563h6.25a1.564 1.564 0 0 1 1.562 1.563v6.25a1.564 1.564 0 0 1-1.563 1.562h-6.25c-.863 0-1.562-.7-1.562-1.562zm-17.719-31.25c0-.864.7-1.563 1.563-1.563h6.25a1.564 1.564 0 0 1 1.562 1.563v6.25A1.564 1.564 0 0 1 44.249 50H38c-.863 0-1.562-.7-1.562-1.562zm0 15.624c0-.863.7-1.562 1.563-1.562h6.25a1.564 1.564 0 0 1 1.562 1.563v6.25a1.564 1.564 0 0 1-1.563 1.562H38c-.863 0-1.562-.7-1.562-1.562zm0 15.626c0-.864.7-1.563 1.563-1.563h6.25a1.564 1.564 0 0 1 1.562 1.563v6.25a1.564 1.564 0 0 1-1.563 1.562H38c-.863 0-1.562-.7-1.562-1.562zm-17.688-31.25c0-.864.7-1.563 1.563-1.563h6.25a1.564 1.564 0 0 1 1.562 1.563v6.25A1.564 1.564 0 0 1 26.561 50h-6.25c-.863 0-1.562-.7-1.562-1.562zm0 15.624c0-.863.7-1.562 1.563-1.562h6.25a1.564 1.564 0 0 1 1.562 1.563v6.25a1.564 1.564 0 0 1-1.563 1.562h-6.25c-.863 0-1.562-.7-1.562-1.562zm0 15.626c0-.864.7-1.563 1.563-1.563h6.25a1.564 1.564 0 0 1 1.562 1.563v6.25a1.564 1.564 0 0 1-1.563 1.562h-6.25c-.863 0-1.562-.7-1.562-1.562z"></path></g><g id="SvgjsG165466" class="text" transform="translate(187.95, 217.09365079365077) scale(1)" stroke="#000000" stroke-width="3px" light-content="false" fill="#ffffff"><path d="M-175.09 -2.2C-171.15 -0.38 -166.72 0.53 -161.79 0.53C-156.97 0.53 -152.67 -0.54 -148.88 -2.69C-145.09 -4.83 -142.13 -7.25 -139.98 -9.95C-137.84 -12.66 -136.8 -14.65 -136.86 -15.95C-136.8 -17 -137.36 -18.06 -138.53 -19.12C-139.7 -20.17 -140.82 -20.7 -141.88 -20.7C-142.7 -20.7 -143.48 -20.39 -144.21 -19.78C-144.95 -19.16 -145.9 -18.21 -147.07 -16.91C-148.95 -14.8 -150.79 -13.13 -152.58 -11.89C-154.37 -10.66 -156.65 -10.04 -159.41 -10.04C-161.29 -10.04 -162.79 -10.76 -163.9 -12.2C-165.02 -13.64 -165.57 -15.83 -165.57 -18.76C-165.57 -22.11 -164.81 -26.28 -163.28 -31.27C-161.46 -37.21 -159.44 -41.65 -157.21 -44.62C-154.97 -47.59 -152.65 -49.07 -150.25 -49.07C-148.54 -49.07 -147.25 -48.63 -146.37 -47.75C-145.49 -46.87 -144.34 -45.05 -142.93 -42.29C-141.7 -39.64 -140.6 -37.78 -139.63 -36.69C-138.66 -35.61 -137.41 -35.06 -135.89 -35.06C-134.42 -35.06 -133.32 -35.38 -132.58 -36.03C-131.85 -36.68 -131.22 -37.79 -130.69 -39.38L-125.76 -53.12C-125.52 -53.77 -125.4 -54.41 -125.4 -55.06C-125.4 -56.29 -125.84 -57.23 -126.72 -57.88C-127.61 -58.52 -128.78 -58.85 -130.25 -58.85C-131.6 -58.85 -132.82 -58.61 -133.9 -58.14C-134.99 -57.67 -136.33 -56.82 -137.91 -55.59L-140.29 -53.74C-142.46 -55.62 -144.84 -57.06 -147.43 -58.05C-150.01 -59.05 -152.98 -59.55 -156.32 -59.55C-162.55 -59.55 -168.39 -57.6 -173.86 -53.69C-179.32 -49.79 -183.4 -43.43 -186.1 -34.62C-187.33 -30.51 -187.95 -26.69 -187.95 -23.17C-187.95 -18.12 -186.79 -13.82 -184.47 -10.26C-182.15 -6.71 -179.02 -4.02 -175.09 -2.2Z M-66.2 -42.86C-70.26 -45.35 -75.66 -46.6 -82.41 -46.6C-89.17 -46.6 -94.19 -45.63 -97.48 -43.7C-100.77 -41.76 -102.41 -39.32 -102.41 -36.38C-102.41 -34.5 -101.6 -32.93 -99.99 -31.67C-98.37 -30.41 -96.13 -29.78 -93.25 -29.78C-90.19 -29.78 -87.85 -30.57 -86.2 -32.15C-84.56 -33.74 -83.73 -35.62 -83.73 -37.79C-83.73 -38.79 -83.91 -39.76 -84.26 -40.7C-82.44 -40.7 -81.09 -40.35 -80.21 -39.64C-79.33 -38.94 -78.86 -37.88 -78.8 -36.47C-78.8 -35.12 -79.18 -33.21 -79.95 -30.75L-82.15 -24.93C-86.85 -26.46 -91.63 -27.22 -96.51 -27.22C-100.85 -27.22 -104.6 -26.19 -107.74 -24.14C-110.88 -22.08 -112.92 -19.03 -113.86 -14.98C-114.04 -14.1 -114.13 -13.18 -114.13 -12.25C-114.13 -10.13 -113.61 -8.12 -112.59 -6.21C-111.56 -4.3 -109.99 -2.75 -107.87 -1.54C-105.76 -0.34 -103.14 0.26 -100.03 0.26C-97.27 0.26 -94.69 -0.31 -92.28 -1.45C-89.87 -2.6 -87.79 -4.23 -86.02 -6.34C-85.2 -4.17 -83.71 -2.53 -81.53 -1.41C-79.36 -0.29 -76.75 0.26 -73.69 0.26C-71.17 0.26 -68.85 -0.26 -66.73 -1.32C-64.62 -2.38 -62.93 -3.73 -61.67 -5.37C-60.4 -7.02 -59.8 -8.63 -59.86 -10.22C-59.86 -10.75 -59.96 -11.22 -60.17 -11.63C-60.37 -12.04 -60.62 -12.25 -60.92 -12.25C-61.09 -12.25 -61.43 -11.94 -61.93 -11.32C-62.43 -10.7 -63.03 -10.4 -63.74 -10.4C-64.5 -10.4 -64.88 -10.87 -64.88 -11.8C-64.88 -12.16 -64.85 -12.45 -64.79 -12.69L-61.18 -24.84C-60.48 -27.31 -60.12 -29.51 -60.12 -31.45C-60.12 -36.56 -62.15 -40.36 -66.2 -42.86ZM-91.35 -18.02C-90.33 -19.28 -88.99 -19.91 -87.35 -19.91C-86.11 -19.91 -85 -19.82 -84 -19.65L-85.85 -14.45C-86.26 -13.21 -86.92 -12.29 -87.83 -11.67C-88.74 -11.06 -89.58 -10.75 -90.34 -10.75C-91.16 -10.75 -91.8 -11.04 -92.24 -11.63C-92.68 -12.22 -92.9 -12.98 -92.9 -13.92C-92.9 -15.39 -92.38 -16.75 -91.35 -18.02Z M-3 -63.16C-4.61 -64.46 -7.12 -65.1 -10.53 -65.1C-14.17 -65.1 -17.66 -64.6 -21.01 -63.6C-24.36 -62.61 -26.21 -61.43 -26.56 -60.08C-26.74 -59.49 -26.69 -59.02 -26.43 -58.67C-26.16 -58.32 -25.74 -57.91 -25.15 -57.44C-24.62 -57.03 -24.2 -56.62 -23.87 -56.2C-23.55 -55.79 -23.39 -55.27 -23.39 -54.62C-23.39 -54.27 -23.48 -53.83 -23.65 -53.3L-37.04 -9.34C-37.46 -7.93 -37.95 -6.9 -38.54 -6.25C-39.13 -5.61 -39.86 -5.05 -40.74 -4.58C-41.74 -4.05 -42.36 -3.44 -42.59 -2.73C-42.83 -1.91 -42.59 -1.25 -41.89 -0.75C-41.18 -0.25 -40.07 0 -38.54 0L-18.46 0C-16.64 0 -15.28 -0.18 -14.4 -0.53C-13.52 -0.88 -12.94 -1.44 -12.64 -2.2C-12.52 -2.61 -12.55 -2.95 -12.73 -3.22C-12.91 -3.48 -13.2 -3.82 -13.61 -4.23C-14.14 -4.64 -14.55 -5.07 -14.84 -5.51C-15.14 -5.95 -15.28 -6.55 -15.28 -7.31C-15.28 -7.84 -15.2 -8.46 -15.02 -9.16L-1.19 -54.09C-0.78 -55.32 -0.57 -56.59 -0.57 -57.88C-0.57 -60.11 -1.38 -61.87 -3 -63.16Z M46.87 -63.16C45.25 -64.46 42.74 -65.1 39.33 -65.1C35.69 -65.1 32.2 -64.6 28.85 -63.6C25.5 -62.61 23.65 -61.43 23.3 -60.08C23.12 -59.49 23.17 -59.02 23.43 -58.67C23.7 -58.32 24.12 -57.91 24.71 -57.44C25.24 -57.03 25.67 -56.62 25.99 -56.2C26.31 -55.79 26.47 -55.27 26.47 -54.62C26.47 -54.27 26.38 -53.83 26.21 -53.3L12.82 -9.34C12.41 -7.93 11.91 -6.9 11.32 -6.25C10.73 -5.61 10 -5.05 9.12 -4.58C8.12 -4.05 7.5 -3.44 7.27 -2.73C7.03 -1.91 7.27 -1.25 7.97 -0.75C8.68 -0.25 9.79 0 11.32 0L31.41 0C33.23 0 34.58 -0.18 35.46 -0.53C36.34 -0.88 36.93 -1.44 37.22 -2.2C37.34 -2.61 37.31 -2.95 37.13 -3.22C36.96 -3.48 36.66 -3.82 36.25 -4.23C35.72 -4.64 35.31 -5.07 35.02 -5.51C34.72 -5.95 34.58 -6.55 34.58 -7.31C34.58 -7.84 34.67 -8.46 34.84 -9.16L48.67 -54.09C49.08 -55.32 49.29 -56.59 49.29 -57.88C49.29 -60.11 48.48 -61.87 46.87 -63.16Z M112.85 -41.76C109.06 -44.99 103.17 -46.6 95.19 -46.6C90.02 -46.6 85.16 -45.62 80.61 -43.65C76.06 -41.68 72.21 -38.92 69.07 -35.37C65.92 -31.82 63.8 -27.75 62.68 -23.17C62.21 -20.94 61.97 -18.91 61.97 -17.09C61.97 -11.69 63.93 -7.36 67.83 -4.1C71.74 -0.84 77.77 0.79 85.94 0.79C91.11 0.79 95.91 -0.19 100.34 -2.16C104.77 -4.13 108.52 -6.92 111.57 -10.53C114.63 -14.14 116.71 -18.35 117.83 -23.17C118.3 -25.34 118.53 -27.31 118.53 -29.07C118.53 -34.3 116.64 -38.53 112.85 -41.76ZM91 -35.46C92.38 -37.66 93.69 -38.76 94.92 -38.76C95.63 -38.76 96.17 -38.53 96.55 -38.06C96.93 -37.59 97.12 -36.74 97.12 -35.5C97.12 -32.92 96.21 -28.78 94.39 -23.08C92.4 -16.62 90.74 -12.27 89.42 -10.04C88.1 -7.81 86.82 -6.75 85.58 -6.87C84.88 -6.87 84.32 -7.09 83.91 -7.53C83.5 -7.97 83.29 -8.84 83.29 -10.13C83.29 -12.6 84.23 -16.88 86.11 -22.99C87.99 -29.1 89.62 -33.26 91 -35.46Z M195.4 -59.77C193.6 -60.57 191.77 -60.96 189.89 -60.96C186.95 -60.96 184.77 -60.17 183.33 -58.58C181.89 -57 181.17 -55.09 181.17 -52.86C181.17 -51.57 181.42 -50.14 181.92 -48.58C182.42 -47.03 183.11 -45.57 183.99 -44.22C179.99 -46.04 174.5 -46.95 167.51 -46.95C163.05 -46.95 158.94 -46.22 155.18 -44.75C151.42 -43.28 148.34 -41.3 145.93 -38.81C143.52 -36.31 141.97 -33.53 141.26 -30.48C140.91 -29.07 140.73 -27.72 140.73 -26.43C140.73 -21.79 142.93 -18.27 147.34 -15.86C142.76 -14.39 140 -12.13 139.06 -9.07C138.88 -8.37 138.79 -7.69 138.79 -7.05C138.79 -5.17 139.5 -3.55 140.91 -2.2C136.68 -1.85 133.64 -1.13 131.79 -0.04C129.94 1.04 128.75 2.44 128.22 4.14C127.99 5.08 127.87 5.78 127.87 6.25C127.87 8.37 128.85 10.29 130.82 12.02C132.79 13.76 135.77 15.12 139.76 16.12C143.76 17.12 148.63 17.62 154.39 17.62C160.85 17.62 166.34 17 170.86 15.77C175.38 14.54 178.89 12.94 181.39 10.97C183.88 9 185.48 6.87 186.19 4.58C186.54 3.47 186.72 2.38 186.72 1.32C186.72 -1.56 185.46 -3.77 182.93 -5.33C180.4 -6.89 176.88 -7.66 172.36 -7.66L159.14 -7.66C157.5 -7.66 156.32 -7.91 155.62 -8.41C154.92 -8.91 154.56 -9.54 154.56 -10.31C154.56 -11.42 155 -12.36 155.88 -13.13C158.88 -12.66 162.08 -12.42 165.49 -12.42C169.95 -12.42 174.05 -13.14 177.78 -14.58C181.51 -16.02 184.56 -18 186.94 -20.53C189.32 -23.05 190.86 -25.84 191.56 -28.9C191.86 -30.48 192 -31.83 192 -32.95C192 -35.47 191.39 -37.65 190.15 -39.47C189.68 -40.58 189.29 -41.79 188.96 -43.08C188.64 -44.37 188.48 -45.49 188.48 -46.43C188.48 -47.19 188.57 -47.78 188.74 -48.19C189.74 -47.72 190.61 -47.38 191.34 -47.17C192.08 -46.97 193.12 -46.87 194.47 -46.87C199.17 -46.87 201.52 -48.6 201.52 -52.06C201.52 -53.65 200.95 -55.13 199.8 -56.51C198.65 -57.89 197.19 -58.98 195.4 -59.77ZM172.18 -36.56C172.18 -34.97 171.71 -32.68 170.77 -29.69C169.66 -26.05 168.54 -23.49 167.42 -22.02C166.31 -20.56 165.02 -19.82 163.55 -19.82C161.9 -19.82 161.08 -20.79 161.08 -22.73C161.08 -24.31 161.55 -26.63 162.49 -29.69C163.61 -33.39 164.71 -35.96 165.8 -37.4C166.88 -38.84 168.16 -39.55 169.63 -39.55C171.33 -39.55 172.18 -38.56 172.18 -36.56ZM153.24 1.23L161.7 1.23C162.7 1.23 163.46 1.44 163.99 1.85C164.52 2.26 164.78 2.82 164.78 3.52C164.78 5.17 163.86 6.43 162.01 7.31C160.16 8.19 157.76 8.63 154.83 8.63C152.42 8.63 150.64 8.31 149.5 7.66C148.35 7.02 147.75 5.96 147.69 4.49C147.69 3.02 148.04 1.85 148.75 0.97C150.1 1.15 151.6 1.23 153.24 1.23Z"></path></g></g></svg>