<svg xmlns="http://www.w3.org/2000/svg" version="1.1" xlink="http://www.w3.org/1999/xlink" width="100%" height="100%" preserveAspectRatio="xMidYMid meet" viewBox="9.676079315568131e-8 9.676079315568131e-8 300.0028076171875 70.99052429199219" overflow="visible"><defs id="SvgjsDefs165475"></defs><g id="SvgjsG165476" transform="scale(0.6493506493506493)" opacity="1"><g id="SvgjsG165477" class="yZpPTJigP" transform="translate(-7.808957371960899, -7.808957371960908) scale(1.2494331795137452)" stroke="#000000" stroke-width="2.401088789051961px" light-content="false" non-strokable="false" fill="#ffffff"><path d="M84.375 12.5h-8.406V9.375a3.124 3.124 0 1 0-6.25 0V12.5h-39.47V9.375a3.124 3.124 0 1 0-6.25 0V12.5h-8.374c-5.176 0-9.375 4.2-9.375 9.375v6.25h87.5v-6.25a9.403 9.403 0 0 0-9.375-9.375zM12.5 34.375H6.25v50c0 5.176 4.2 9.375 9.375 9.375h68.75a9.403 9.403 0 0 0 9.375-9.375v-50zm59.375 7.813c0-.864.7-1.563 1.563-1.563h6.25a1.564 1.564 0 0 1 1.562 1.563v6.25A1.564 1.564 0 0 1 79.687 50h-6.25c-.863 0-1.562-.7-1.562-1.562zm0 15.624c0-.863.7-1.562 1.563-1.562h6.25a1.564 1.564 0 0 1 1.562 1.563v6.25a1.564 1.564 0 0 1-1.563 1.562h-6.25c-.863 0-1.562-.7-1.562-1.562zM70.75 74.939c.293-.297.691-.461 1.11-.461s.816.164 1.109.46L75 76.97l5.125-5.156a1.568 1.568 0 1 1 2.219 2.218l-6.25 6.25a1.628 1.628 0 0 1-2.219 0l-3.125-3.125a1.605 1.605 0 0 1 0-2.219zm-16.594-32.75c0-.864.7-1.563 1.563-1.563h6.25a1.564 1.564 0 0 1 1.562 1.563v6.25A1.564 1.564 0 0 1 61.968 50h-6.25c-.863 0-1.562-.7-1.562-1.562zm0 15.624c0-.863.7-1.562 1.563-1.562h6.25a1.564 1.564 0 0 1 1.562 1.563v6.25a1.564 1.564 0 0 1-1.563 1.562h-6.25c-.863 0-1.562-.7-1.562-1.562zm0 15.626c0-.864.7-1.563 1.563-1.563h6.25a1.564 1.564 0 0 1 1.562 1.563v6.25a1.564 1.564 0 0 1-1.563 1.562h-6.25c-.863 0-1.562-.7-1.562-1.562zm-17.719-31.25c0-.864.7-1.563 1.563-1.563h6.25a1.564 1.564 0 0 1 1.562 1.563v6.25A1.564 1.564 0 0 1 44.249 50H38c-.863 0-1.562-.7-1.562-1.562zm0 15.624c0-.863.7-1.562 1.563-1.562h6.25a1.564 1.564 0 0 1 1.562 1.563v6.25a1.564 1.564 0 0 1-1.563 1.562H38c-.863 0-1.562-.7-1.562-1.562zm0 15.626c0-.864.7-1.563 1.563-1.563h6.25a1.564 1.564 0 0 1 1.562 1.563v6.25a1.564 1.564 0 0 1-1.563 1.562H38c-.863 0-1.562-.7-1.562-1.562zm-17.688-31.25c0-.864.7-1.563 1.563-1.563h6.25a1.564 1.564 0 0 1 1.562 1.563v6.25A1.564 1.564 0 0 1 26.561 50h-6.25c-.863 0-1.562-.7-1.562-1.562zm0 15.624c0-.863.7-1.562 1.563-1.562h6.25a1.564 1.564 0 0 1 1.562 1.563v6.25a1.564 1.564 0 0 1-1.563 1.562h-6.25c-.863 0-1.562-.7-1.562-1.562zm0 15.626c0-.864.7-1.563 1.563-1.563h6.25a1.564 1.564 0 0 1 1.562 1.563v6.25a1.564 1.564 0 0 1-1.563 1.562h-6.25c-.863 0-1.562-.7-1.562-1.562z"></path></g><g id="SvgjsG165478" class="text" transform="translate(292.49430123351897, 79.56019420716439) scale(1)" stroke="#000000" stroke-width="3px" light-content="false" fill="#ffffff"><path d="M-147.28 -1.85C-143.97 -0.32 -140.24 0.44 -136.09 0.44C-132.04 0.44 -128.42 -0.46 -125.23 -2.26C-122.05 -4.06 -119.55 -6.1 -117.75 -8.37C-115.95 -10.65 -115.07 -12.33 -115.12 -13.41C-115.07 -14.3 -115.54 -15.19 -116.53 -16.08C-117.51 -16.97 -118.45 -17.41 -119.34 -17.41C-120.03 -17.41 -120.69 -17.15 -121.31 -16.64C-121.92 -16.12 -122.73 -15.31 -123.71 -14.23C-125.29 -12.45 -126.84 -11.04 -128.34 -10C-129.85 -8.97 -131.77 -8.45 -134.09 -8.45C-135.67 -8.45 -136.93 -9.05 -137.87 -10.26C-138.81 -11.47 -139.28 -13.31 -139.28 -15.78C-139.28 -18.6 -138.63 -22.11 -137.35 -26.31C-135.82 -31.3 -134.11 -35.04 -132.24 -37.53C-130.36 -40.03 -128.41 -41.27 -126.38 -41.27C-124.95 -41.27 -123.86 -40.9 -123.12 -40.16C-122.38 -39.42 -121.42 -37.89 -120.23 -35.57C-119.19 -33.35 -118.27 -31.78 -117.45 -30.86C-116.64 -29.95 -115.59 -29.49 -114.3 -29.49C-113.07 -29.49 -112.14 -29.76 -111.52 -30.31C-110.91 -30.85 -110.38 -31.79 -109.93 -33.12L-105.78 -44.68C-105.58 -45.23 -105.48 -45.77 -105.48 -46.31C-105.48 -47.35 -105.85 -48.14 -106.6 -48.69C-107.34 -49.23 -108.33 -49.5 -109.56 -49.5C-110.7 -49.5 -111.72 -49.3 -112.64 -48.91C-113.55 -48.51 -114.67 -47.8 -116.01 -46.76L-118.01 -45.2C-119.84 -46.78 -121.84 -47.99 -124.01 -48.83C-126.18 -49.67 -128.68 -50.09 -131.49 -50.09C-136.73 -50.09 -141.65 -48.45 -146.24 -45.17C-150.83 -41.88 -154.27 -36.53 -156.54 -29.12C-157.58 -25.66 -158.1 -22.45 -158.1 -19.49C-158.1 -15.24 -157.12 -11.62 -155.17 -8.63C-153.22 -5.64 -150.59 -3.38 -147.28 -1.85Z M-55.69 -36.05C-59.1 -38.15 -63.64 -39.2 -69.32 -39.2C-75 -39.2 -79.23 -38.38 -81.99 -36.75C-84.76 -35.12 -86.14 -33.07 -86.14 -30.6C-86.14 -29.02 -85.46 -27.7 -84.11 -26.64C-82.75 -25.58 -80.86 -25.05 -78.44 -25.05C-75.87 -25.05 -73.89 -25.71 -72.51 -27.05C-71.13 -28.38 -70.43 -29.96 -70.43 -31.79C-70.43 -32.63 -70.58 -33.44 -70.88 -34.24C-69.35 -34.24 -68.21 -33.94 -67.47 -33.35C-66.73 -32.75 -66.33 -31.86 -66.28 -30.68C-66.28 -29.54 -66.61 -27.94 -67.25 -25.86L-69.1 -20.97C-73.05 -22.26 -77.08 -22.9 -81.18 -22.9C-84.83 -22.9 -87.98 -22.03 -90.63 -20.3C-93.27 -18.57 -94.99 -16.01 -95.78 -12.6C-95.93 -11.86 -96 -11.09 -96 -10.3C-96 -8.52 -95.57 -6.83 -94.7 -5.22C-93.84 -3.62 -92.52 -2.31 -90.74 -1.3C-88.96 -0.28 -86.76 0.22 -84.14 0.22C-81.82 0.22 -79.65 -0.26 -77.62 -1.22C-75.6 -2.19 -73.84 -3.56 -72.36 -5.34C-71.67 -3.51 -70.41 -2.12 -68.58 -1.19C-66.75 -0.25 -64.56 0.22 -61.99 0.22C-59.86 0.22 -57.91 -0.22 -56.13 -1.11C-54.35 -2 -52.93 -3.14 -51.87 -4.52C-50.81 -5.9 -50.3 -7.26 -50.35 -8.6C-50.35 -9.04 -50.44 -9.44 -50.61 -9.78C-50.78 -10.13 -50.99 -10.3 -51.24 -10.3C-51.39 -10.3 -51.67 -10.04 -52.09 -9.52C-52.51 -9 -53.02 -8.74 -53.61 -8.74C-54.26 -8.74 -54.58 -9.14 -54.58 -9.93C-54.58 -10.23 -54.55 -10.47 -54.5 -10.67L-51.46 -20.9C-50.87 -22.97 -50.57 -24.82 -50.57 -26.45C-50.57 -30.75 -52.28 -33.95 -55.69 -36.05ZM-76.84 -15.15C-75.98 -16.22 -74.86 -16.75 -73.47 -16.75C-72.43 -16.75 -71.5 -16.67 -70.66 -16.52L-72.21 -12.15C-72.56 -11.12 -73.11 -10.34 -73.88 -9.82C-74.65 -9.3 -75.35 -9.04 -75.99 -9.04C-76.68 -9.04 -77.21 -9.29 -77.58 -9.78C-77.96 -10.28 -78.14 -10.92 -78.14 -11.71C-78.14 -12.94 -77.71 -14.09 -76.84 -15.15Z M-2.52 -53.13C-3.88 -54.22 -5.99 -54.76 -8.86 -54.76C-11.92 -54.76 -14.86 -54.34 -17.67 -53.5C-20.49 -52.66 -22.05 -51.67 -22.34 -50.54C-22.49 -50.04 -22.45 -49.65 -22.23 -49.35C-22.01 -49.06 -21.65 -48.71 -21.16 -48.31C-20.71 -47.97 -20.35 -47.62 -20.08 -47.28C-19.81 -46.93 -19.67 -46.49 -19.67 -45.94C-19.67 -45.65 -19.75 -45.28 -19.9 -44.83L-31.16 -7.85C-31.51 -6.67 -31.93 -5.8 -32.42 -5.26C-32.91 -4.72 -33.53 -4.25 -34.27 -3.85C-35.11 -3.41 -35.63 -2.89 -35.83 -2.3C-36.03 -1.61 -35.83 -1.05 -35.24 -0.63C-34.64 -0.21 -33.7 0 -32.42 0L-15.52 0C-13.99 0 -12.86 -0.15 -12.12 -0.44C-11.37 -0.74 -10.88 -1.21 -10.63 -1.85C-10.53 -2.2 -10.56 -2.48 -10.71 -2.7C-10.86 -2.93 -11.1 -3.21 -11.45 -3.56C-11.89 -3.9 -12.24 -4.26 -12.49 -4.63C-12.73 -5 -12.86 -5.51 -12.86 -6.15C-12.86 -6.6 -12.78 -7.11 -12.63 -7.71L-1 -45.5C-0.65 -46.54 -0.48 -47.6 -0.48 -48.69C-0.48 -50.56 -1.16 -52.04 -2.52 -53.13Z M39.42 -53.13C38.06 -54.22 35.95 -54.76 33.09 -54.76C30.02 -54.76 27.08 -54.34 24.27 -53.5C21.45 -52.66 19.9 -51.67 19.6 -50.54C19.45 -50.04 19.49 -49.65 19.71 -49.35C19.93 -49.06 20.29 -48.71 20.79 -48.31C21.23 -47.97 21.59 -47.62 21.86 -47.28C22.13 -46.93 22.27 -46.49 22.27 -45.94C22.27 -45.65 22.19 -45.28 22.05 -44.83L10.78 -7.85C10.44 -6.67 10.02 -5.8 9.52 -5.26C9.03 -4.72 8.41 -4.25 7.67 -3.85C6.83 -3.41 6.31 -2.89 6.11 -2.3C5.92 -1.61 6.11 -1.05 6.71 -0.63C7.3 -0.21 8.24 0 9.52 0L26.42 0C27.95 0 29.09 -0.15 29.83 -0.44C30.57 -0.74 31.06 -1.21 31.31 -1.85C31.41 -2.2 31.38 -2.48 31.23 -2.7C31.09 -2.93 30.84 -3.21 30.49 -3.56C30.05 -3.9 29.7 -4.26 29.46 -4.63C29.21 -5 29.09 -5.51 29.09 -6.15C29.09 -6.6 29.16 -7.11 29.31 -7.71L40.94 -45.5C41.29 -46.54 41.46 -47.6 41.46 -48.69C41.46 -50.56 40.78 -52.04 39.42 -53.13Z M94.92 -35.12C91.74 -37.84 86.79 -39.2 80.07 -39.2C75.72 -39.2 71.63 -38.37 67.8 -36.72C63.97 -35.06 60.74 -32.74 58.1 -29.75C55.45 -26.76 53.66 -23.34 52.72 -19.49C52.33 -17.61 52.13 -15.91 52.13 -14.38C52.13 -9.83 53.77 -6.19 57.06 -3.45C60.34 -0.7 65.42 0.67 72.29 0.67C76.63 0.67 80.67 -0.16 84.4 -1.82C88.13 -3.47 91.28 -5.82 93.85 -8.86C96.42 -11.89 98.17 -15.44 99.11 -19.49C99.51 -21.32 99.7 -22.97 99.7 -24.45C99.7 -28.85 98.11 -32.41 94.92 -35.12ZM76.55 -29.83C77.71 -31.68 78.81 -32.6 79.85 -32.6C80.44 -32.6 80.89 -32.41 81.22 -32.01C81.54 -31.62 81.7 -30.9 81.7 -29.86C81.7 -27.69 80.93 -24.21 79.4 -19.41C77.72 -13.98 76.33 -10.32 75.21 -8.45C74.1 -6.57 73.03 -5.68 71.99 -5.78C71.4 -5.78 70.93 -5.97 70.58 -6.34C70.24 -6.71 70.06 -7.43 70.06 -8.52C70.06 -10.6 70.85 -14.2 72.43 -19.34C74.02 -24.48 75.39 -27.97 76.55 -29.83Z M164.36 -50.28C162.85 -50.95 161.31 -51.28 159.73 -51.28C157.26 -51.28 155.42 -50.61 154.21 -49.28C153 -47.94 152.39 -46.34 152.39 -44.46C152.39 -43.37 152.6 -42.18 153.02 -40.87C153.44 -39.56 154.02 -38.34 154.76 -37.2C151.4 -38.73 146.78 -39.5 140.91 -39.5C137.15 -39.5 133.69 -38.88 130.53 -37.64C127.37 -36.41 124.78 -34.74 122.75 -32.64C120.72 -30.54 119.42 -28.21 118.82 -25.64C118.53 -24.45 118.38 -23.32 118.38 -22.23C118.38 -18.33 120.23 -15.36 123.94 -13.34C120.08 -12.1 117.76 -10.2 116.97 -7.63C116.82 -7.04 116.75 -6.47 116.75 -5.93C116.75 -4.35 117.34 -2.99 118.53 -1.85C114.97 -1.56 112.41 -0.95 110.86 -0.04C109.3 0.88 108.3 2.05 107.86 3.48C107.66 4.27 107.56 4.87 107.56 5.26C107.56 7.04 108.39 8.66 110.04 10.11C111.7 11.57 114.2 12.72 117.56 13.56C120.92 14.4 125.02 14.82 129.86 14.82C135.3 14.82 139.92 14.3 143.72 13.26C147.53 12.23 150.48 10.88 152.58 9.23C154.68 7.57 156.02 5.78 156.61 3.85C156.91 2.91 157.06 2 157.06 1.11C157.06 -1.31 156 -3.17 153.87 -4.48C151.75 -5.79 148.78 -6.45 144.98 -6.45L133.87 -6.45C132.48 -6.45 131.49 -6.66 130.9 -7.08C130.31 -7.5 130.01 -8.03 130.01 -8.67C130.01 -9.61 130.38 -10.4 131.12 -11.04C133.64 -10.65 136.34 -10.45 139.2 -10.45C142.96 -10.45 146.4 -11.05 149.54 -12.26C152.68 -13.47 155.24 -15.14 157.24 -17.27C159.25 -19.39 160.54 -21.74 161.14 -24.31C161.38 -25.64 161.51 -26.78 161.51 -27.71C161.51 -29.84 160.99 -31.67 159.95 -33.2C159.55 -34.14 159.22 -35.15 158.95 -36.24C158.68 -37.32 158.54 -38.26 158.54 -39.05C158.54 -39.69 158.62 -40.19 158.76 -40.53C159.6 -40.14 160.33 -39.85 160.95 -39.68C161.57 -39.51 162.44 -39.42 163.58 -39.42C167.53 -39.42 169.51 -40.88 169.51 -43.79C169.51 -45.13 169.03 -46.38 168.06 -47.54C167.1 -48.7 165.87 -49.61 164.36 -50.28ZM144.83 -30.75C144.83 -29.42 144.44 -27.49 143.65 -24.97C142.71 -21.91 141.77 -19.76 140.83 -18.53C139.89 -17.29 138.81 -16.67 137.57 -16.67C136.19 -16.67 135.5 -17.49 135.5 -19.12C135.5 -20.45 135.89 -22.4 136.68 -24.97C137.62 -28.08 138.55 -30.25 139.46 -31.46C140.37 -32.67 141.45 -33.27 142.68 -33.27C144.12 -33.27 144.83 -32.43 144.83 -30.75ZM128.9 1.04L136.01 1.04C136.85 1.04 137.5 1.21 137.94 1.56C138.39 1.9 138.61 2.37 138.61 2.96C138.61 4.35 137.83 5.41 136.27 6.15C134.72 6.89 132.7 7.26 130.23 7.26C128.21 7.26 126.71 6.99 125.75 6.45C124.79 5.9 124.28 5.01 124.23 3.78C124.23 2.54 124.53 1.56 125.12 0.82C126.26 0.96 127.52 1.04 128.9 1.04Z"></path></g></g></svg>